# xmcd
#
# Track frame offsets:
#	150
#	13645
#	27993
#	40967
#	53767
#	67210
#	83015
#	96600
#	110625
#	125070
#	139708
#
# Disc length: 2056 seconds
#
# Revision: 1
# Processed by: cddbd v1.5.1PL0 Copyright (c) Steve Scherf et al.
# Submitted via: audiograbber 1.83.01
#
DISCID=9e08060b
DTITLE=FELIPE and  FALCÃO - NÓIS É SIMPRÃO DE TUDO
DYEAR=2004
DGENRE=Country
TTITLE0=É PRA LÁ QUE EU VOU
TTITLE1=VAI RIMAR COM QUÊ
TTITLE2=NÓIS É SIMPRÃO DE TUDO
TTITLE3=CEM REAIS
TTITLE4=MATA DE SAUDADE
TTITLE5=NEM TCHUMM
TTITLE6=O KARA TÊ
TTITLE7=TEM QUE SER AGORA
TTITLE8=HOJE TEM SHOW DE BOLA
TTITLE9=CHUVA DE MULHER
TTITLE10=TO INDO EMBORA
EXTD=MUSICA SERTANEJA DA MELHOR QUALIDADE!!!!!!
EXTT0=
EXTT1=
EXTT2=
EXTT3=
EXTT4=
EXTT5=
EXTT6=
EXTT7=
EXTT8=
EXTT9=
EXTT10=
PLAYORDER=
